<?xml version="1.0" encoding="utf-8"?>
<!-- Generator: Adobe Illustrator 24.0.3, SVG Export Plug-In . SVG Version: 6.00 Build 0)  -->
<svg version="1.1" id="_x31_f308" xmlns="http://www.w3.org/2000/svg" xmlns:xlink="http://www.w3.org/1999/xlink" x="0px" y="0px"
	 viewBox="0 0 36 36" style="enable-background:new 0 0 36 36;" xml:space="preserve">
<style type="text/css">
	.st0{fill:#8767AC;}
	.st1{fill:#EB2027;}
	.st2{fill:#F19020;}
	.st3{fill:#FFCB4C;}
	.st4{fill:#5C903F;}
	.st5{fill:#226798;}
</style>
<g>
	<path class="st0" d="M36,1C16.1,1,1,16.1,1,36h17c0-9.9,8-18,18-18V1z"/>
	<path class="st1" d="M0,36h3C3,17.8,17.8,3.1,36,3V0C16.1,0,0,16.1,0,36z"/>
	<path class="st2" d="M3.1,36h3C6.1,19.5,19.5,6.1,36,6V3C17.8,3.1,3.1,17.8,3.1,36z"/>
	<path class="st3" d="M6.1,36h3c0-14.9,12-26.9,26.9-27V6C19.5,6.1,6.1,19.5,6.1,36z"/>
	<path class="st4" d="M9.1,36h3c0-13.2,10.7-23.9,23.9-24V9C21.1,9.1,9.1,21.1,9.1,36z"/>
	<path class="st5" d="M12.1,36h3c0-11.6,9.4-20.9,20.9-21v-3C22.8,12.1,12.1,22.8,12.1,36z"/>
</g>
</svg>
