<?xml version="1.0" encoding="utf-8"?>
<!-- Generator: Adobe Illustrator 24.0.3, SVG Export Plug-In . SVG Version: 6.00 Build 0)  -->
<svg version="1.1" id="_x31_f33c" xmlns="http://www.w3.org/2000/svg" xmlns:xlink="http://www.w3.org/1999/xlink" x="0px" y="0px"
	 viewBox="0 0 36 36" style="enable-background:new 0 0 36 36;" xml:space="preserve">
<style type="text/css">
	.st0{fill:#77B255;}
	.st1{fill:#CCD6DD;}
	.st2{fill:#E1E8ED;}
	.st3{fill:#F4900C;}
</style>
<g>
	<path class="st0" d="M28.9,27.4c-2.6-0.9-8.1-0.4-9.9,1.3V16.9c0-0.6-0.4-1-1-1s-1,0.4-1,1v11.8c-1.8-1.8-7.4-2.2-9.9-1.3
		c-0.7,0.3,5.3,8.7,9.5,4.5c0.2-0.2,0.3-0.3,0.4-0.5v3.5c0,0.6,0.4,1,1,1s1-0.4,1-1v-3.5c0.1,0.2,0.3,0.3,0.4,0.5
		C23.7,36.1,29.7,27.6,28.9,27.4z"/>
	<path class="st1" d="M12.6,25.6c-0.6-0.3-1.1-0.8-1.4-1.5l-1.3-3.3l-3.3-1.4c-1.3-0.6-1.9-1.9-1.3-3.3l1.4-3.2L5.3,9.7
		C4.8,8.3,5.5,6.8,6.8,6.3L10.1,5l1.4-3.4c0.6-1.3,1.9-1.9,3.3-1.3l3.3,1.4l3.3-1.4c0.7-0.3,1.4-0.3,2,0c0.6,0.3,1.1,0.8,1.4,1.5
		L26,5.1l3.3,1.4c1.3,0.6,1.9,1.9,1.3,3.3l-1.5,3.4l1.4,3.3c0.5,1.3-0.2,2.9-1.5,3.4l-3.3,1.3l-1.4,3.2c-0.6,1.3-1.9,1.9-3.3,1.3
		l-3.3-1.4l-3.3,1.4C13.9,25.8,13.2,25.9,12.6,25.6z"/>
	<path class="st2" d="M29.3,6.5L26,5.1L26,4.9c-1.6,1.3-5.2,4.4-5.2,4.4s0,0,0,0.1c-0.8-0.6-1.7-1-2.8-1V1.6l-3.2-1.4
		c-1.3-0.6-2.7,0-3.3,1.3L10.1,5l-0.1,0l4.8,4.8c-0.8,0.8-1.3,1.9-1.3,3.2H6.7l-1.4,3.2c-0.6,1.3,0,2.7,1.3,3.3l3.3,1.4l0,0l4.5-5.1
		c0.8,1.1,2.1,1.8,3.6,1.8c0,0,0,0,0,0c0,2,0,5.3,0,6.8l3.2,1.4c1.3,0.6,2.7,0,3.3-1.3l1.4-3.2l-5.2-4.5c1.1-0.8,1.9-2.1,1.9-3.7
		c0-0.1,0-0.1,0-0.2c1.8,0.2,5,0.5,6.8,0.6l-0.1-0.2l1.5-3.4C31.2,8.4,30.7,7.1,29.3,6.5z"/>
	<circle class="st3" cx="18" cy="12.9" r="5"/>
</g>
</svg>
