<?xml version="1.0" encoding="utf-8"?>
<!-- Generator: Adobe Illustrator 24.0.3, SVG Export Plug-In . SVG Version: 6.00 Build 0)  -->
<svg version="1.1" id="_x31_f3b8" xmlns="http://www.w3.org/2000/svg" xmlns:xlink="http://www.w3.org/1999/xlink" x="0px" y="0px"
	 viewBox="0 0 36 36" style="enable-background:new 0 0 36 36;" xml:space="preserve">
<style type="text/css">
	.st0{fill:#62EDC9;}
	.st1{fill:#292F33;}
	.st2{fill:#F5F8FA;}
	.st3{fill:#CCD6DD;}
	.st4{fill:#66757F;}
</style>
<g>
	<path class="st0" d="M22.1,20.3c-2.1,0.7-2.8-2.8-2.8-2.8s1-1,0.2-1.8c1.1-1.1,0.5-1.7,0.5-1.7c-2-2-5.1-2-7.1,0
		c-0.2,0.2-0.4,0.5-0.6,0.7c-0.1,0.1-0.1,0.2-0.2,0.3c0,0,0,0,0,0c-0.3,0.5-0.5,1-0.6,1.5c-0.2,0.3-0.4,0.7-0.8,1.1
		c-1.4,1.4-4.9-0.7-7.8,2.1c0,0,0,0.1-0.1,0.1c-0.1,0.1-0.2,0.2-0.3,0.2c-3.3,3.3-3,9,0.7,12.7c3.5,3.5,8.8,4,12.2,1.2
		c0.1,0,0.1-0.1,0.2-0.1c0.1-0.1,0.1-0.1,0.2-0.2c0.1,0,0.1-0.1,0.2-0.1c1.7-1.7,2.3-3.7,2.1-5.8c-0.1-1-0.2-1.8,0.4-2.3
		c0.7-0.7,2.8,0,4.2-1.4C24.9,21.7,23.4,19.8,22.1,20.3z"/>
	<rect x="13.1" y="10.5" transform="matrix(0.7071 -0.7071 0.7071 0.7071 -1.48 20.4751)" class="st1" width="21.7" height="3"/>
	<path class="st2" d="M10.3,28.9c1.8,1.3,2,3.5,1.9,4.8c0,0.5,0.5,0.9,1,0.6c2.6-1.5,4.6-3.8,4-7.9c-0.1-0.7,0.1-2.1,2.3-2.4
		c2.2-0.3,2.9-1.1,3.2-1.5c0.2-0.2,0.3-0.8-0.3-0.9c-0.6,0-2.1,0.4-3.4-1.1c-1.3-1.6-1.6-2.2-1.6-2.5c0-0.2-1.4-3.7-2.5-1.9
		c-0.9,1.5-2,4.5-5.3,5.3c-1.4,0.3-3.1,1-3.6,2c-0.8,1.6,0.5,2.7,1.6,3.5C8.6,27.7,10.3,28.9,10.3,28.9z"/>
	<rect x="14.8" y="17.7" transform="matrix(0.7069 -0.7073 0.7073 0.7069 -9.6513 17.0987)" class="st1" width="2" height="5"/>
	<rect x="10.3" y="22.2" transform="matrix(0.7071 -0.7071 0.7071 0.7071 -14.1253 15.2361)" class="st1" width="2" height="5"/>
	<rect x="3.4" y="15.9" transform="matrix(0.7078 -0.7065 0.7065 0.7078 -6.0127 18.0562)" class="st3" width="30.8" height="0.8"/>
	<rect x="4.3" y="16.8" transform="matrix(0.7078 -0.7065 0.7065 0.7078 -6.3727 18.9239)" class="st3" width="30.8" height="0.8"/>
	<path class="st1" d="M10.1,28c0.4,0.4,0.4,1,0,1.4c-0.4,0.4-1,0.4-1.4,0l-2.1-2.1c-0.4-0.4-0.4-1,0-1.4h0c0.4-0.4,1-0.4,1.4,0
		L10.1,28z"/>
	<circle class="st1" cx="13.3" cy="29.3" r="1"/>
	<path class="st1" d="M14.7,31.6c0,0.4-0.3,0.7-0.7,0.7c-0.4,0-0.7-0.3-0.7-0.7c0-0.4,0.3-0.7,0.7-0.7
		C14.4,30.9,14.7,31.2,14.7,31.6z"/>
	<path class="st0" d="M35.3,4.3c0.4,0.4,0.4,1.1,0,1.5l-4.4,3c-0.4,0.4-1.1,0.4-1.5,0l-2.3-2.3c-0.4-0.4-0.4-1.1,0-1.5l3-4.4
		c0.4-0.4,1.1-0.4,1.5,0L35.3,4.3z"/>
	<circle class="st4" cx="32.4" cy="9.1" r="0.6"/>
	<circle class="st4" cx="33.6" cy="8.3" r="0.6"/>
	<circle class="st4" cx="34.9" cy="7.4" r="0.6"/>
	<circle class="st4" cx="27" cy="3.5" r="0.6"/>
	<circle class="st4" cx="27.8" cy="2.3" r="0.6"/>
	<circle class="st4" cx="28.7" cy="1.1" r="0.6"/>
</g>
</svg>
