<?xml version="1.0" encoding="utf-8"?>
<!-- Generator: Adobe Illustrator 24.0.3, SVG Export Plug-In . SVG Version: 6.00 Build 0)  -->
<svg version="1.1" id="_x31_f3c0" xmlns="http://www.w3.org/2000/svg" xmlns:xlink="http://www.w3.org/1999/xlink" x="0px" y="0px"
	 viewBox="0 0 36 36" style="enable-background:new 0 0 36 36;" xml:space="preserve">
<style type="text/css">
	.st0{fill:#F4900C;}
	.st1{fill:#231F20;}
</style>
<g>
	<circle class="st0" cx="18" cy="18" r="18"/>
</g>
<path class="st1" d="M36,17h-9c0.2-5.5,1.9-9.3,4.8-10.5c-0.4-0.5-0.9-1-1.4-1.5c-2.8,1.6-5.1,5.3-5.4,12h-6V0h-2v17h-6
	C10.8,10.2,8.5,6.5,5.6,5c-0.5,0.5-1,1-1.4,1.5C7,7.7,8.8,11.5,9,17H0v2h9C8.8,24.5,7,28.3,4.2,29.5c0.4,0.5,0.9,1,1.4,1.5
	c2.8-1.6,5.1-5.3,5.4-12h6v17h2V19h6c0.2,6.8,2.5,10.5,5.4,12c0.5-0.5,1-1,1.4-1.5c-2.8-1.3-4.6-5-4.8-10.5h9V17z"/>
</svg>
