<?xml version="1.0" encoding="utf-8"?>
<!-- Generator: Adobe Illustrator 24.0.3, SVG Export Plug-In . SVG Version: 6.00 Build 0)  -->
<svg version="1.1" id="_x31_f407" xmlns="http://www.w3.org/2000/svg" xmlns:xlink="http://www.w3.org/1999/xlink" x="0px" y="0px"
	 viewBox="0 0 36 36" style="enable-background:new 0 0 36 36;" xml:space="preserve">
<style type="text/css">
	.st0{fill:#C4895C;}
	.st1{fill:#FFEAD7;}
	.st2{fill:#9B6740;}
	.st3{fill:#292F33;}
	.st4{fill:#F4ABBA;}
</style>
<g>
	<path class="st0" d="M9,11C9,6.9,7,0,8,0s7,4,5,11c-1.1,4-0.9,4-2,4S9,15.1,9,11z"/>
	<path class="st1" d="M9.5,11.7c0-3.4-1.3-9.1-0.6-9.1c0.6,0,4.5,3.3,3.2,9.1C11.4,15,11.6,15,10.8,15S9.5,15.1,9.5,11.7z"/>
	<path class="st0" d="M4.8,12.4C3.7,8.4,0,2.3,1,2c1-0.3,7.8,2.1,7.7,9.3c-0.1,4.1,0.2,4.1-0.9,4.4C6.7,16,5.9,16.4,4.8,12.4z"/>
	<path class="st1" d="M5.5,12.9c-0.9-3.3-3.6-8.4-3-8.6c0.6-0.2,5.2,2,5.5,7.9c0.1,3.4,0.3,3.3-0.4,3.5C6.9,16,6.4,16.2,5.5,12.9z"
		/>
	<circle class="st2" cx="32.5" cy="28.5" r="3.5"/>
	<path class="st0" d="M30.7,31.7c1.5-1.4,2.3-3.5,2.3-6.7c0-7.2-6.8-11-14-11c-2.1,0-3.8,0.2-5.3,0.5c-1.1-1.1-2.9-1.5-5.3-1.5
		C4.1,13,0,17.1,0,21.3C0,25.5,3.9,26,8,26c0,0,0,0,0,0c3,5,1,10,3,10c1.6,0,1.9-2.2,2-4.4c1.1,0.7,2.3,1.2,3.5,1.6
		c-0.9,0.5-1.5,1.1-1.5,1.3c0,1.4,2,1.5,5,1.5c5.5,0,13,0,11-4C30.9,31.9,30.8,31.8,30.7,31.7z"/>
	<circle class="st3" cx="6" cy="18" r="1"/>
	<path class="st4" d="M2,21c0,1.1-0.5,2-1,2s-1-0.9-1-2s0.4-1,1-1S2,19.9,2,21z"/>
</g>
</svg>
