<?xml version="1.0" encoding="utf-8"?>
<!-- Generator: Adobe Illustrator 24.0.3, SVG Export Plug-In . SVG Version: 6.00 Build 0)  -->
<svg version="1.1" id="_x31_f452" xmlns="http://www.w3.org/2000/svg" xmlns:xlink="http://www.w3.org/1999/xlink" x="0px" y="0px"
	 viewBox="0 0 36 36" style="enable-background:new 0 0 36 36;" xml:space="preserve">
<style type="text/css">
	.st0{fill:#FFD983;}
	.st1{fill:#9266CC;}
	.st2{fill:#FFFFFF;}
	.st3{fill:#FFAC33;}
</style>
<g>
	<ellipse class="st0" cx="18" cy="23.5" rx="18" ry="5"/>
	<path class="st0" d="M29,17.5c0,1.6-4.9,6-11,6s-11-4.4-11-6c0-7,7-10,11-10S29,10.5,29,17.5z"/>
	<path class="st1" d="M29,21.5c-5,3-17,3-22,0c0-0.5,0-3.5,0-4c6,3,16,3,22,0C29,18,29,21,29,21.5z"/>
	<ellipse class="st2" cx="18" cy="24.5" rx="1" ry="2"/>
	<ellipse class="st2" cx="18" cy="18.5" rx="1" ry="2"/>
	<path class="st2" d="M16.6,24.3c-0.8,0.8-1.7,1.1-2.1,0.7c-0.4-0.4-0.1-1.3,0.7-2.1c0.8-0.8,1.7-1.1,2.1-0.7
		C17.7,22.6,17.4,23.5,16.6,24.3z"/>
	<path class="st2" d="M20.8,20.1c-0.8,0.8-1.7,1.1-2.1,0.7c-0.4-0.4-0.1-1.3,0.7-2.1c0.8-0.8,1.7-1.1,2.1-0.7
		C21.9,18.4,21.6,19.3,20.8,20.1z"/>
	<path class="st2" d="M15,22.5c-1.1,0-2-0.4-2-1c0-0.6,0.9-1,2-1c1.1,0,2,0.4,2,1S16.1,22.5,15,22.5z"/>
	<path class="st2" d="M21,22.5c-1.1,0-2-0.4-2-1s0.9-1,2-1s2,0.4,2,1C23,22.1,22.1,22.5,21,22.5z"/>
	<path class="st2" d="M15.2,20.1c-0.8-0.8-1.1-1.7-0.7-2.1c0.4-0.4,1.3-0.1,2.1,0.7c0.8,0.8,1.1,1.7,0.7,2.1
		C16.9,21.2,16,20.9,15.2,20.1z"/>
	<path class="st2" d="M19.4,24.3c-0.8-0.8-1.1-1.7-0.7-2.1c0.4-0.4,1.3-0.1,2.1,0.7c0.8,0.8,1.1,1.7,0.7,2.1
		C21.1,25.4,20.2,25.1,19.4,24.3z"/>
	<circle class="st3" cx="18" cy="21.5" r="2"/>
</g>
</svg>
