<?xml version="1.0" encoding="utf-8"?>
<!-- Generator: Adobe Illustrator 24.0.3, SVG Export Plug-In . SVG Version: 6.00 Build 0)  -->
<svg version="1.1" id="_x31_f49f" xmlns="http://www.w3.org/2000/svg" xmlns:xlink="http://www.w3.org/1999/xlink" x="0px" y="0px"
	 viewBox="0 0 36 36" style="enable-background:new 0 0 36 36;" xml:space="preserve">
<style type="text/css">
	.st0{fill:#DD2E44;}
	.st1{fill:#FFDCFB;}
</style>
<path class="st0" d="M36,32c0,2.2-1.8,4-4,4H4c-2.2,0-4-1.8-4-4V4c0-2.2,1.8-4,4-4h28c2.2,0,4,1.8,4,4V32z"/>
<path class="st1" d="M31.9,13.8c0-4.2-3.4-7.7-7.7-7.7c-2.6,0-4.8,1.3-6.2,3.2c-1.4-1.9-3.7-3.2-6.2-3.2c-4.2,0-7.7,3.4-7.7,7.7
	c0,0.6,0.1,1.2,0.2,1.7C5.4,22.1,12.7,29.1,18,31c5.3-1.9,12.6-8.9,13.7-15.5C31.8,14.9,31.9,14.4,31.9,13.8z"/>
</svg>
