<?xml version="1.0" encoding="utf-8"?>
<!-- Generator: Adobe Illustrator 24.0.3, SVG Export Plug-In . SVG Version: 6.00 Build 0)  -->
<svg version="1.1" id="_x31_f4d8" xmlns="http://www.w3.org/2000/svg" xmlns:xlink="http://www.w3.org/1999/xlink" x="0px" y="0px"
	 viewBox="0 0 36 36" style="enable-background:new 0 0 36 36;" xml:space="preserve">
<style type="text/css">
	.st0{fill:#226699;}
	.st1{fill:#CCD6DD;}
	.st2{fill:#E1E8ED;}
	.st3{fill:#3B88C3;}
	.st4{fill:#55ACEE;}
</style>
<path class="st0" d="M35,26c0,2.2-1.8,4-4,4H5c-2.2,0-4-1.8-4-4V6.3C1,4.1,6.8,0,9,0h20.6C32.7,0,35,2.3,35,5.4V26z"/>
<path class="st1" d="M33,30c0,2.2-1.8,4-4,4H7c-2.2,0-4-1.8-4-4V6c0-4.1,0-4,5-4h21c2.2,0,4,1.8,4,4V30z"/>
<path class="st2" d="M31,31c0,1.7-1.3,3-3,3H4c-1.7,0-3-1.3-3-3V7c0-1.7,1.3-3,3-3h24c1.7,0,3,1.3,3,3V31z"/>
<path class="st3" d="M31,32c0,2.2-1.8,4-4,4H6c-2.2,0-4-1.8-4-4V10c0-2.2,1.8-4,4-4h21c2.2,0,4,1.8,4,4V32z"/>
<path class="st4" d="M29,32c0,2.2-1.8,4-4,4H6c-2.2,0-4-1.8-4-4V12c0-2.2,1.8-4,4-4h19.3c2.2,0,3.7,1.5,3.7,3.7V32z"/>
<path class="st0" d="M6,6C4.3,6,4.3,4.1,5,3.2C5.8,2.3,7.1,2,9.4,2H11c0-1,0-1.7,0-2H8.3C4.3,0,1,2.5,1,5.4V32c0,2.2,1.8,4,4,4h2
	c0-2.3,0-20.3,0-30H6z"/>
</svg>
