<?xml version="1.0" encoding="utf-8"?>
<!-- Generator: Adobe Illustrator 24.0.3, SVG Export Plug-In . SVG Version: 6.00 Build 0)  -->
<svg version="1.1" id="_x31_f58d" xmlns="http://www.w3.org/2000/svg" xmlns:xlink="http://www.w3.org/1999/xlink" x="0px" y="0px"
	 viewBox="0 0 36 36" style="enable-background:new 0 0 36 36;" xml:space="preserve">
<style type="text/css">
	.st0{fill:#DD2E44;}
	.st1{fill:#EA596E;}
	.st2{fill:#292F33;}
	.st3{fill:#BE1931;}
</style>
<path class="st0" d="M35.7,7.5l-7.2-7.2c-0.4-0.4-1-0.4-1.4,0L3.4,24c-0.4,0.4-0.4,1,0,1.4c0.7,0.7-3.1,8-3.4,8.5L2.1,36
	c0.5-0.3,7.8-4.1,8.5-3.4c0.4,0.4,1,0.4,1.4,0L35.7,8.9C36.1,8.5,36.1,7.9,35.7,7.5z"/>
<g>
	
		<rect x="3.8" y="10.3" transform="matrix(0.7071 -0.7071 0.7071 0.7071 -5.8725 18.6548)" class="st1" width="31.5" height="12.2"/>
	<rect x="27.5" y="1.3" transform="matrix(0.7071 -0.7071 0.7071 0.7071 3.107 22.3759)" class="st2" width="2" height="12.2"/>
	<rect x="9.6" y="19.3" transform="matrix(0.7071 -0.7071 0.7071 0.7071 -14.8511 14.9358)" class="st2" width="2" height="12.2"/>
	<path class="st3" d="M26.9,9.4c-1.5-1.5-6,0.5-10,4.5c-4,4-6,8.4-4.5,10c1.5,1.5,6-0.5,10-4.5C26.4,15.3,28.4,10.9,26.9,9.4z"/>
</g>
</svg>
