<?xml version="1.0" encoding="utf-8"?>
<!-- Generator: Adobe Illustrator 24.0.3, SVG Export Plug-In . SVG Version: 6.00 Build 0)  -->
<svg version="1.1" id="_x31_f6b2" xmlns="http://www.w3.org/2000/svg" xmlns:xlink="http://www.w3.org/1999/xlink" x="0px" y="0px"
	 viewBox="0 0 36 36" style="enable-background:new 0 0 36 36;" xml:space="preserve">
<style type="text/css">
	.st0{fill:#EA596E;}
	.st1{fill:#8B8F91;}
	.st2{fill:#DD2E44;}
	.st3{fill:#363F44;}
</style>
<g>
	<path class="st0" d="M7,18.7c2,0,3.6,1.1,4.5,2.8l3.5-1.7c-1.4-3-4.5-5-8-5c-1.3,0-2.5,0.3-3.6,0.8l1.7,3.7
		C5.6,18.8,6.3,18.7,7,18.7z"/>
	<path class="st0" d="M29,18.7c1.5,0,2.8,0.6,3.7,1.6l2.9-2.6c-1.6-1.8-4-3-6.7-3c-3.6,0-6.7,2.1-8.1,5.2l3.6,1.7
		C25.3,19.8,27,18.7,29,18.7z"/>
	<path class="st1" d="M7,16.7c-3.9,0-7,3.1-7,7s3.1,7,7,7s7-3.1,7-7S10.9,16.7,7,16.7z M7,28.7c-2.8,0-5-2.2-5-5s2.2-5,5-5
		s5,2.2,5,5S9.8,28.7,7,28.7z"/>
	<path class="st1" d="M29,16.7c-3.9,0-7,3.1-7,7s3.1,7,7,7c3.9,0,7-3.1,7-7S32.9,16.7,29,16.7z M29,28.7c-2.8,0-5-2.2-5-5s2.2-5,5-5
		c2.8,0,5,2.2,5,5S31.8,28.7,29,28.7z"/>
	<path class="st2" d="M30,23.6c0-0.1,0-0.1,0-0.2c0-0.1,0-0.1-0.1-0.2c0,0,0-0.1,0-0.1l-7-11c-0.3-0.5-0.9-0.6-1.4-0.3
		C21.2,12,21,12.3,21,12.7h-9c-0.6,0-1,0.4-1,1v0c0,0.6,0.4,1,1,1h10c0,0,0,0,0.1,0l5.1,8H18c-0.6,0-1,0.4-1,1s0.4,1,1,1h11
		c0,0,0,0,0,0c0.1,0,0.2,0,0.3-0.1c0,0,0.1,0,0.1,0c0,0,0.1,0,0.1,0c0,0,0-0.1,0.1-0.1c0.1,0,0.1-0.1,0.1-0.1c0,0,0.1-0.1,0.1-0.2
		c0-0.1,0.1-0.1,0.1-0.2c0-0.1,0-0.1,0-0.2C30,23.7,30,23.7,30,23.6C30,23.6,30,23.6,30,23.6z"/>
	<path class="st2" d="M21.6,10.7l-2.9,8.1L12.8,12c-0.4-0.4-1-0.5-1.4-0.1c-0.4,0.4-0.5,1-0.1,1.4l6.7,7.6l-0.9,2.4
		c-0.2,0.5,0.1,1.1,0.6,1.3c0.1,0,0.2,0.1,0.3,0.1c0.4,0,0.8-0.3,0.9-0.7l4.8-13.3H21.6z"/>
	<path class="st2" d="M7,24.7c-0.1,0-0.3,0-0.4-0.1c-0.5-0.2-0.7-0.8-0.4-1.3l3.1-6.1c0,0,1.8-2.8,1.8-5.4c0-3.2-2.3-4-2.3-4.1
		C8.2,7.4,7.9,6.9,8.1,6.4c0.2-0.5,0.7-0.8,1.3-0.6C9.5,5.8,13,7,13,11.7c0,3.1-1.8,6-2.1,6.5l-3,5.9C7.7,24.5,7.4,24.7,7,24.7z"/>
	<path class="st1" d="M14.6,8.3c-0.1,0-0.1,0-0.2,0l-6-1C7.9,7.2,7.5,6.7,7.6,6.2c0.1-0.5,0.6-0.9,1.2-0.8l6,1
		c0.5,0.1,0.9,0.6,0.8,1.2C15.5,8,15.1,8.3,14.6,8.3z"/>
	<path class="st1" d="M26.4,11.7C26.4,11.7,26.3,11.7,26.4,11.7L20.6,11c-0.4,0-0.6-0.4-0.6-0.7c0-0.4,0.3-0.7,0.7-0.7
		c0,0,4.1,0,6-1.3c0.2-0.2,0.6-0.2,0.8,0c0.2,0.2,0.3,0.5,0.2,0.8l-0.7,2.1C27,11.5,26.7,11.7,26.4,11.7z"/>
	<path class="st3" d="M20,23.7c0,1.1-0.9,2-2,2c-1.1,0-2-0.9-2-2s0.9-2,2-2C19.1,21.7,20,22.6,20,23.7z"/>
</g>
</svg>
