<?xml version="1.0" encoding="utf-8"?>
<!-- Generator: Adobe Illustrator 24.0.3, SVG Export Plug-In . SVG Version: 6.00 Build 0)  -->
<svg version="1.1" id="_x31_f6e0" xmlns="http://www.w3.org/2000/svg" xmlns:xlink="http://www.w3.org/1999/xlink" x="0px" y="0px"
	 viewBox="0 0 36 36" style="enable-background:new 0 0 36 36;" xml:space="preserve">
<style type="text/css">
	.st0{fill:#8899A6;}
	.st1{fill:#F4900C;}
	.st2{fill:#66757F;}
</style>
<g>
	<path class="st0" d="M34.2,7.2L31.5,10c0,0-1.8,0.9-3.7-0.9c-1.8-1.8-0.9-3.7-0.9-3.7l2.7-2.7c0.9-0.9-0.2-1.8-1-1.8
		c-4.1,0-7.3,3.3-7.3,7.3c0,0.6,0.1,1.1,0.2,1.7l-6.2,6.2l5.5,5.5l6.2-6.2c0.5,0.1,1.1,0.2,1.7,0.2c4,0,7.3-3.3,7.3-7.3
		C36,7.4,35.2,6.3,34.2,7.2z"/>
	<path class="st0" d="M15.2,16.3L3,28.5c-1.5,1.5-1.5,3.9,0,5.4c1.5,1.5,3.9,1.5,5.4,0l12.2-12.2L15.2,16.3z M5.8,32.7
		c-0.8,0-1.5-0.7-1.5-1.5c0-0.8,0.7-1.5,1.5-1.5c0.8,0,1.5,0.7,1.5,1.5C7.2,32.1,6.6,32.7,5.8,32.7z"/>
	<path class="st1" d="M30.8,34.2c1.2,1.2,3,1.2,4.1,0.1c1.1-1.1,1-3-0.1-4.1L11.6,6.9c-1.2-1.2-3-1.2-4.1-0.1c-1.1,1.1-1,3,0.1,4.1
		L30.8,34.2z"/>
	<path class="st2" d="M21.4,1.8c0,0-6-3-11,2c-4.5,4.5-7,7-7,7s-1-1-2,0c-1,1-1,1-1,1s-1,1,0,2c1,1,4,4,4,4s1,1,2,0s1-1,1-1s1-1,0-2
		c0,0-0.1-0.1-0.1-0.1c0.8-0.7,1.9-1.5,3.1-0.9l4-4c0,0-1-3,1-5s3-2,5-2S21.4,1.8,21.4,1.8z"/>
</g>
</svg>
