<?xml version="1.0" encoding="utf-8"?>
<!-- Generator: Adobe Illustrator 24.0.3, SVG Export Plug-In . SVG Version: 6.00 Build 0)  -->
<svg version="1.1" id="_x31_f9c1" xmlns="http://www.w3.org/2000/svg" xmlns:xlink="http://www.w3.org/1999/xlink" x="0px" y="0px"
	 viewBox="0 0 36 36" style="enable-background:new 0 0 36 36;" xml:space="preserve">
<style type="text/css">
	.st0{fill:#BBDDF5;}
	.st1{fill:#662113;}
	.st2{fill:#C1694F;}
	.st3{fill:#88C9F9;}
	.st4{fill:#FFE8B6;}
	.st5{fill:#FFCC4D;}
	.st6{fill:#DD2E44;}
	.st7{fill:#55ACEE;}
	.st8{fill:#77B255;}
	.st9{fill:#F4900C;}
	.st10{fill:#AA8DD8;}
</style>
<g>
	<path class="st0" d="M5,21.9c0,0,1.6,5.7,2,8.5c0.5,3.1,3.6,5.6,11,5.6s10.5-2.5,11-5.6c0.4-2.8,2-8.5,2-8.5H5z"/>
	<path class="st1" d="M5.1,22c0.2,1.2,0.7,2,1.3,1.6c0.7-0.4,1.7-0.2,1.3,0.6c-0.3,0.8,1,1.1,1.5,0.7c0.5-0.4,1.6-0.9,1.7,0.1
		c0.1,0.9,1.2,1.1,1.7,0.5c0.5-0.7,1.9-0.4,2.1,0.4s1.6,0.7,2,0.1c0.4-0.5,0.7-0.9,1.3-0.9v0c0.6,0,1,0.4,1.3,0.9
		c0.4,0.6,1.7,0.7,2-0.1s1.6-1.1,2.1-0.4c0.5,0.6,1.6,0.4,1.7-0.5c0.1-0.9,1.1-0.5,1.7-0.1c0.5,0.4,1.8,0.1,1.5-0.7
		c-0.3-0.8,0.7-1,1.3-0.6c0.7,0.4,1.1-0.4,1.3-1.6H5.1z"/>
	<path class="st2" d="M33,19c0-4.9-6.7-8.9-15-8.9c-8.3,0-15,4-15,8.9c0,4,9,6,15,6S33,23,33,19z"/>
	<g>
		<path class="st3" d="M18,35.5c-0.3,0-0.5-0.2-0.5-0.5v-8.6c0-0.3,0.2-0.5,0.5-0.5s0.5,0.2,0.5,0.5V35C18.5,35.3,18.3,35.5,18,35.5
			z"/>
		<path class="st3" d="M11.3,34.3c-0.2,0-0.5-0.2-0.5-0.4l-1-8c0-0.3,0.2-0.5,0.4-0.6c0.3,0,0.5,0.2,0.6,0.4l1,8
			C11.9,34,11.7,34.2,11.3,34.3C11.4,34.3,11.4,34.3,11.3,34.3z"/>
		<path class="st3" d="M14.5,35.2c-0.3,0-0.5-0.2-0.5-0.5l-0.7-8.5c0-0.3,0.2-0.5,0.5-0.5c0.3,0,0.5,0.2,0.5,0.5l0.7,8.5
			C15,35,14.8,35.2,14.5,35.2C14.5,35.2,14.5,35.2,14.5,35.2z"/>
		<path class="st3" d="M8.6,32.2c-0.2,0-0.3-0.1-0.4-0.3l-1.5-7.4c0-0.2,0.1-0.4,0.3-0.4c0.2,0,0.4,0.1,0.4,0.3l1.5,7.4
			C9,32,8.8,32.2,8.6,32.2C8.6,32.2,8.6,32.2,8.6,32.2z"/>
		<path class="st3" d="M24.7,34.2C24.6,34.2,24.6,34.2,24.7,34.2c-0.3,0-0.5-0.3-0.5-0.6l1.1-7.9c0-0.3,0.3-0.5,0.6-0.4
			c0.3,0,0.5,0.3,0.4,0.6l-1.1,7.9C25.1,34,24.9,34.2,24.7,34.2z"/>
		<path class="st3" d="M21.6,35.2C21.6,35.2,21.6,35.2,21.6,35.2c-0.3,0-0.5-0.3-0.5-0.5l0.7-8.5c0-0.3,0.3-0.5,0.5-0.5
			c0.3,0,0.5,0.3,0.5,0.5l-0.7,8.5C22.1,35.1,21.9,35.2,21.6,35.2z"/>
		<path class="st3" d="M27.6,32.2C27.6,32.2,27.5,32.2,27.6,32.2c-0.3,0-0.4-0.2-0.4-0.4l1.4-7.5c0-0.2,0.2-0.3,0.4-0.3
			c0.2,0,0.3,0.2,0.3,0.4L28,31.9C27.9,32.1,27.8,32.2,27.6,32.2z"/>
	</g>
	<path class="st4" d="M16.9,0c0,0,1.1,1.1,2.2,1.2c2.3,0,4.4,1.3,4.4,3.5c0,0,5.3,0,5.4,4.7c0,0,2.7,0,3.3,4.7
		c0.5,3.5-3,8.2-14.1,8.2c-9.8,0-14.8-3.5-14.1-8.2c0.6-4.5,4.4-4.7,4.4-4.7s-0.6-5.8,6.5-5.8C14.8,3.5,15.5,1.2,16.9,0z"/>
	<path class="st5" d="M17.9,10.5c2.9-1.1,5.6-3.1,5.5-5.8c0-0.9-0.3-1.6-0.9-2.1c0.6,2.8-3.7,6-8.4,6.5C8.3,9.7,9,6.2,9,6.2s0,0,0,0
		C8.1,7.8,8.2,9.4,8.2,9.4C9.1,11.8,13.8,12.1,17.9,10.5z"/>
	<path class="st5" d="M28.9,9.4c0-0.1,0-0.3,0-0.4c-0.1-0.7-0.5-1.5-0.8-2.1c-0.2-0.3-0.4-0.5-0.6-0.7c1.1,4.4-5.6,9.7-11.9,11
		c-8.3,1.6-11.7-3.1-11.7-3.1c-0.3,2.4,0.9,4.5,3.4,6C17.6,24.2,29,13.9,28.9,9.4z"/>
	<g>
		<path class="st6" d="M8.7,14.2l-1.2,1.6c-0.3,0.4-1,0.5-1.4,0.2l0,0c-0.4-0.3-0.5-1-0.2-1.4l1.2-1.6c0.3-0.4,1-0.5,1.4-0.2l0,0
			C8.9,13.2,9,13.8,8.7,14.2z"/>
		<path class="st7" d="M15,8.2l-2-0.4c-0.5-0.1-0.9-0.6-0.8-1.2v0c0.1-0.5,0.6-0.9,1.2-0.8l2,0.4c0.5,0.1,0.9,0.6,0.8,1.2v0
			C16,8,15.5,8.3,15,8.2z"/>
		<path class="st8" d="M16.5,14.2l1.3,1.5c0.4,0.4,0.3,1-0.1,1.4l0,0c-0.4,0.4-1,0.3-1.4-0.1L15,15.5c-0.4-0.4-0.3-1,0.1-1.4l0,0
			C15.5,13.8,16.1,13.8,16.5,14.2z"/>
		<path class="st9" d="M24.4,11.5l-1.9,0.7c-0.5,0.2-1.1-0.1-1.3-0.6v0c-0.2-0.5,0.1-1.1,0.6-1.3l1.9-0.7c0.5-0.2,1.1,0.1,1.3,0.6
			l0,0C25.2,10.8,24.9,11.3,24.4,11.5z"/>
		<path class="st10" d="M30.4,14.1l-1,1.7c-0.3,0.5-0.9,0.6-1.4,0.4h0c-0.5-0.3-0.6-0.9-0.4-1.4l1-1.7c0.3-0.5,0.9-0.6,1.4-0.4l0,0
			C30.5,13,30.7,13.6,30.4,14.1z"/>
	</g>
</g>
</svg>
