<?xml version="1.0" encoding="utf-8"?>
<!-- Generator: Adobe Illustrator 24.0.3, SVG Export Plug-In . SVG Version: 6.00 Build 0)  -->
<svg version="1.1" id="_x31_f9f8" xmlns="http://www.w3.org/2000/svg" xmlns:xlink="http://www.w3.org/1999/xlink" x="0px" y="0px"
	 viewBox="0 0 36 36" style="enable-background:new 0 0 36 36;" xml:space="preserve">
<style type="text/css">
	.st0{fill:#C1694F;}
	.st1{fill:#A0041E;}
	.st2{fill:#662113;}
	.st3{fill:#292F33;}
	.st4{fill:#D99E82;}
	.st5{fill:#934035;}
</style>
<g>
	<path class="st0" d="M25,22.4h-0.3c0.2-0.8,0.3-1.6,0.3-2.5c0-5.2-3.1-9.5-7-9.5s-7,4.3-7,9.5c0,0.9,0.1,1.7,0.3,2.5H11
		c-2,3-1.5,8.1,0.1,9c6.9,4,2.9-2,6.9-2s0,6,6.9,2C26.5,30.4,27,25.4,25,22.4z"/>
	<path class="st0" d="M23.7,20.8c-0.2-1.5,0.3-3.6,0.3-5.2c-1.4,1.1-4,1.8-5.9,1.8s-4.5-0.7-5.9-1.8c-0.1,1.7,0.4,3.7,0.2,5.2
		c-0.5,4,2.4,7.2,5.7,7.2S24.1,24.8,23.7,20.8z"/>
	<path class="st0" d="M12.4,14.4c0,0-5,1-6,7s3.4,6.6,5,5c2-2,0-4,0-4S12.4,17.4,12.4,14.4z"/>
	<path class="st0" d="M23.6,14.4c0,0,5,1,6,7s-3.4,6.6-5,5c-2-2,0-4,0-4S23.6,17.4,23.6,14.4z"/>
	<path class="st1" d="M13,13.4c-2,0-1,1-1,2s1,3,3,2c0,0-1,2-1,5c0,0,2,0,3,2c0,0,1-7,1-9S14,13.4,13,13.4z"/>
	<path class="st1" d="M23,13.4c2,0,1,1,1,2s-1,3-3,2c0,0,1,2,1,5c0,0-2,0-3,2c0,0-1-7-1-9S22,13.4,23,13.4z"/>
	<g>
		<circle class="st0" cx="11" cy="4.4" r="4"/>
		<circle class="st2" cx="11" cy="4.4" r="2"/>
		<circle class="st0" cx="25" cy="4.4" r="4"/>
		<circle class="st2" cx="25" cy="4.4" r="2"/>
		<ellipse class="st0" cx="18" cy="8.9" rx="8" ry="7.5"/>
		<circle class="st3" cx="15" cy="8.4" r="1"/>
		<circle class="st3" cx="21" cy="8.4" r="1"/>
		<path class="st4" d="M18.1,9.9c-6.8,0-4.6,5.6-0.1,5.6C22.4,15.5,24.9,9.9,18.1,9.9z"/>
		<path class="st3" d="M16.7,11.4l0.5,0.9c0.3,0.6,1.1,0.6,1.5,0l0.5-0.9c0.3-0.6-0.1-1.3-0.7-1.3h-1.1
			C16.8,10.2,16.4,10.9,16.7,11.4z"/>
	</g>
	<path class="st5" d="M11.3,27.4c-0.2,0-0.3-0.1-0.4-0.2c-0.1-0.2-0.1-0.5,0.2-0.7c0,0,1-0.7,1-2c0-1-0.9-1.6-0.9-1.6
		c-0.1-0.1-0.2-0.2-0.2-0.4c-0.2-2.4,0.7-4.7,0.7-4.8c0.1-0.3,0.4-0.4,0.6-0.3c0.3,0.1,0.4,0.4,0.3,0.6c0,0-0.8,2.1-0.6,4.2
		c0.4,0.3,1.1,1.1,1.2,2.3c0,1.9-1.4,2.9-1.5,2.9C11.4,27.3,11.4,27.4,11.3,27.4z"/>
	<path class="st5" d="M24.7,27.4c-0.1,0-0.2,0-0.3-0.1c-0.1,0-1.5-1-1.5-2.9c0-1.2,0.8-2,1.2-2.3c0.1-2.1-0.6-4.1-0.6-4.2
		c-0.1-0.3,0-0.5,0.3-0.6c0.3-0.1,0.5,0,0.6,0.3c0,0.1,0.9,2.4,0.7,4.8c0,0.1-0.1,0.3-0.2,0.4c0,0-0.9,0.7-0.9,1.6c0,1.4,1,2,1,2
		c0.2,0.1,0.3,0.5,0.2,0.7C25.1,27.3,24.9,27.4,24.7,27.4z M24.7,22.4L24.7,22.4L24.7,22.4z"/>
	<g>
		<ellipse transform="matrix(0.7071 -0.7071 0.7071 0.7071 -18.5722 16.9065)" class="st0" cx="11.1" cy="30.9" rx="4.5" ry="5"/>
		<path class="st4" d="M13.3,33.6c-1.1,1.1-2.9,0.9-4.1-0.3c-1.2-1.2-1.4-3.1-0.3-4.1c1.1-1.1,2.9-0.9,4.1,0.3
			C14.3,30.7,14.4,32.5,13.3,33.6z"/>
		<path class="st4" d="M12.9,33.1c-0.8,0.8-2.2,0.6-3.2-0.4c-1-1-1.1-2.4-0.4-3.2c0.8-0.8,2.2-0.6,3.2,0.4S13.7,32.4,12.9,33.1z"/>
		<ellipse transform="matrix(0.7071 -0.7071 0.7071 0.7071 -14.5429 26.6337)" class="st0" cx="24.9" cy="30.9" rx="5" ry="4.5"/>
		<path class="st4" d="M22.7,33.6c1.1,1.1,2.9,0.9,4.1-0.3c1.2-1.2,1.4-3.1,0.3-4.1c-1.1-1.1-2.9-0.9-4.1,0.3
			C21.7,30.7,21.6,32.5,22.7,33.6z"/>
		<ellipse transform="matrix(0.7071 -0.7071 0.7071 0.7071 -14.8965 26.7802)" class="st4" cx="24.9" cy="31.4" rx="2.5" ry="2"/>
	</g>
	<path class="st3" d="M18.1,14.5c-1.3,0-2.2-0.9-2.3-1c-0.1-0.1-0.1-0.3,0-0.4s0.3-0.1,0.4,0c0.1,0.1,1.8,1.8,3.6,0
		c0.1-0.1,0.3-0.1,0.4,0s0.1,0.3,0,0.4C19.5,14.3,18.7,14.5,18.1,14.5z"/>
	<path class="st5" d="M15.9,30.1c-0.2,0-0.4-0.1-0.4-0.3c-2.3-4.6-6.8-3.2-7-3.1c-0.3,0.1-0.5,0-0.6-0.3c-0.1-0.3,0-0.5,0.3-0.6
		c0.1,0,5.5-1.8,8.2,3.6c0.1,0.2,0,0.5-0.2,0.7C16.1,30.1,16,30.1,15.9,30.1z"/>
	<path class="st5" d="M20.1,30.1c-0.1,0-0.1,0-0.2,0c-0.3-0.1-0.4-0.4-0.3-0.7c2.3-5.3,8.1-3.6,8.2-3.6c0.3,0.1,0.4,0.4,0.3,0.6
		c-0.1,0.3-0.4,0.4-0.6,0.3c-0.2-0.1-5.1-1.4-7,3.1C20.4,30,20.2,30.1,20.1,30.1z"/>
</g>
</svg>
