<?xml version="1.0" encoding="utf-8"?>
<!-- Generator: Adobe Illustrator 24.0.3, SVG Export Plug-In . SVG Version: 6.00 Build 0)  -->
<svg version="1.1" id="_x31_fa81" xmlns="http://www.w3.org/2000/svg" xmlns:xlink="http://www.w3.org/1999/xlink" x="0px" y="0px"
	 viewBox="0 0 36 36" style="enable-background:new 0 0 36 36;" xml:space="preserve">
<style type="text/css">
	.st0{fill:#55ACEE;}
	.st1{fill:#226699;}
	.st2{fill:#F6F7DF;}
	.st3{fill:#EF7E20;}
</style>
<g>
	<polygon class="st0" points="22.2,32.3 0.4,18.7 6.3,0.7 24.4,6.6 	"/>
	<path class="st1" d="M20.3,29.5c-0.4,0-0.7-0.2-0.9-0.6L6.7,3.7c-0.2-0.5,0-1.1,0.4-1.3c0.5-0.2,1.1,0,1.3,0.4L21.2,28
		c0.2,0.5,0,1.1-0.4,1.3C20.6,29.4,20.5,29.5,20.3,29.5z"/>
	<path class="st1" d="M2.9,18.5c-0.4,0-0.7-0.2-0.9-0.6c-0.2-0.5,0-1.1,0.4-1.3L21.4,7c0.5-0.2,1.1-0.1,1.3,0.4
		c0.2,0.5,0,1.1-0.4,1.3L3.4,18.3C3.2,18.4,3.1,18.5,2.9,18.5z"/>
	<path class="st2" d="M27.2,35.3c-2.4,0-4.5-1.3-6.2-3.8c-0.3-0.5-0.2-1.1,0.3-1.4c0.5-0.3,1.1-0.2,1.4,0.3c1.6,2.3,3.4,3.2,5.6,2.8
		c0.9-0.2,1.8-1,2.3-2.1c0.7-1.7,0.5-3.7-0.6-5.3c-2-3-2.8-6.8-2.1-10.2c0.6-3,2.2-5.3,4.7-6.9C33,8.4,33.6,8.5,33.9,9
		c0.3,0.5,0.2,1.1-0.3,1.4c-2.5,1.6-3.5,3.9-3.8,5.6c-0.6,2.9,0.1,6.2,1.8,8.7c1.5,2.2,1.8,4.9,0.8,7.2c-0.7,1.8-2.1,3-3.7,3.3
		C28.1,35.3,27.6,35.3,27.2,35.3z"/>
	<g>
		<path class="st3" d="M31.3,31c-0.8-2.5-2.8-4.5-4.2-2.1c-1.3,2.4,1,3.5,3.7,2.7c0.8,2.5,2.8,4.5,4.2,2.1
			C36.4,31.3,34,30.3,31.3,31z"/>
		<path class="st3" d="M29.9,23.9c2.4,1.1,5.2,0.9,4.3-1.7c-0.9-2.6-3.3-1.5-4.5,1c-2.4-1.1-5.2-0.9-4.3,1.7
			C26.3,27.5,28.7,26.4,29.9,23.9z"/>
		<path class="st3" d="M28.6,17.3c1.4,2.2,3.8,3.7,4.5,1c0.7-2.6-1.8-3.1-4.3-1.8c-1.4-2.2-3.8-3.7-4.5-1
			C23.6,18.2,26.2,18.7,28.6,17.3z"/>
		<path class="st3" d="M31.5,10.8c-0.1,2.6,1.1,5.2,3.2,3.4c2.1-1.8,0.2-3.6-2.5-3.9c0.1-2.6-1.1-5.2-3.2-3.4
			C26.9,8.7,28.8,10.5,31.5,10.8z"/>
	</g>
</g>
</svg>
