<?xml version="1.0" encoding="utf-8"?>
<!-- Generator: Adobe Illustrator 24.0.3, SVG Export Plug-In . SVG Version: 6.00 Build 0)  -->
<svg version="1.1" id="Layer_1" xmlns="http://www.w3.org/2000/svg" xmlns:xlink="http://www.w3.org/1999/xlink" x="0px" y="0px"
	 viewBox="0 0 36 36" style="enable-background:new 0 0 36 36;" xml:space="preserve">
<style type="text/css">
	.st0{fill:#77B255;}
</style>
<path class="st0" d="M32.4,19.2c0.2-1.5,2.7-2.2,2.7-4.5c0-2.3-5.8-6.4-14,1.3c3.8-5.3,6.5-14.5,2.2-14.5c-1.5,0-2.6,1.3-4.3,1.3
	C16.5,2.8,16.2,0,14,0c-2.6,0-5,6.2,1,15c-1.5-1.6-11.1-6.6-13-1.3c-0.6,1.8,1.7,2.8,1.5,4.5c-0.2,1.7-2.6,2-2.6,4.4
	c0,3.3,8,4.8,16-1.6c-0.2,4.5,0.6,10.5,3.9,14.2c1.3,1.5,2.4,0.6,2.8,0.2c0.4-0.4,1.6-1.4,0.2-2.8c-3.8-3.8-5.2-8.2-5.6-11.4
	c2,2.2,12.4,8.7,15.5,2.8C34.7,22.3,32.1,21,32.4,19.2z"/>
</svg>
